<svg width="60" height="63" viewBox="0 0 60 63" fill="none" xmlns="http://www.w3.org/2000/svg">
<path d="M50.964 21.6698C42.0166 15.6945 21.6372 4.98879 14.4296 2.25011C7.22192 -0.488573 1.00875 0.756287 1.00875 11.213V51.5462C0.657398 61.0268 10.9502 65.7376 20.6429 60.0112C30.3356 54.2849 44.0049 47.5627 53.2008 40.3426C62.3968 33.1225 59.9114 27.6451 50.964 21.6698Z" fill="white" stroke="black"/>
<path d="M18.3689 17.9353H11.9445V44.9133H18.3689V37.3921L21.3206 34.7761L29.655 45.322H37.2949L25.8351 29.9527C25.8351 29.9527 35.0377 19.5704 35.7322 17.9353H29.1341C26.8632 19.7318 18.3689 28.9717 18.3689 28.9717V17.9353Z" fill="#185ADB"/>
</svg>
